<svg xmlns="http://www.w3.org/2000/svg" viewBox="0 0 64 64" fill="none">
  <defs>
    <linearGradient id="w" x1="20" y1="58" x2="42" y2="14" gradientUnits="userSpaceOnUse">
      <stop offset="0" stop-color="#5b4128"/>
      <stop offset="0.62" stop-color="#8a5f33"/>
      <stop offset="1" stop-color="#c98a4b"/>
    </linearGradient>
    <linearGradient id="f" x1="40" y1="2" x2="44" y2="18" gradientUnits="userSpaceOnUse">
      <stop offset="0" stop-color="#f6b356"/>
      <stop offset="1" stop-color="#e06a2e"/>
    </linearGradient>
  </defs>
  <path d="M16 59 L23 56 L42 17 L36 15 Z" fill="url(#w)"/>
  <path d="M21.5 51 L36.5 20" stroke="#3d2c19" stroke-width="1.1" stroke-linecap="round" opacity="0.55"/>
  <path d="M25.5 49 L38.8 21.5" stroke="#e8b877" stroke-width="0.9" stroke-linecap="round" opacity="0.5"/>
  <path d="M41.5 3 C45.6 8 48 11.4 45.2 15.3 C43.6 17.5 40 17.6 38.4 15.4 C36 12.2 38 7.4 41.5 3 Z" fill="url(#f)"/>
  <path d="M41.6 8.5 C43.3 10.6 44 12.3 42.8 13.9 C42 14.9 40.5 14.9 39.8 13.8 C38.8 12.3 39.9 10.3 41.6 8.5 Z" fill="#fbe0b4" opacity="0.9"/>
</svg>
